<svg width="163" height="39" fill="none" xmlns="http://www.w3.org/2000/svg"><path d="M49.802 15.692c1.866 0 3.378-1.482 3.378-3.31s-1.512-3.31-3.378-3.31c-1.865 0-3.378 1.482-3.378 3.31s1.513 3.31 3.378 3.31zM161.28 26.999c-.514-.354-.911-.413-1.24.274-5.673 12.036-15.233 6.03-14.284 6.559 2.121-.95 7.698-5.332 6.855-11.381-.512-3.697-3.751-5.337-7.19-4.75-6.002 1.025-8.21 7.366-7.086 12.98.196.965.548 1.76.899 2.539-6.783 5.403-9.477-4.837-9.782-6.06-.012-.066 5.237-4.352 6.697-14.564 1.531-10.704-1.956-12.653-5.52-12.592-6.597.113-8.379 13.612-5.984 24.863-.201.05-1.134.557-2.634.614-1.079-3.326-5.691-6.242-6.898-5.118-3.02 2.81.733 8.305 3.374 8.736-1.587 9.57-11.508 7.2-9.661-4.79 3.231-5.877 5.688-14.614 5.249-19.89-.155-1.867-1.565-4.369-4.753-4.245-6.132.238-6.798 13.741-6.079 23.325-.036-.236-.377 1.164-2.89 1.86-.595-3.231-5.907-6.475-7.157-4.915-2.341 2.919 1.716 8.123 3.637 8.486-1.586 9.57-11.507 7.2-9.66-4.79 3.23-5.877 5.688-14.615 5.25-19.89-.156-1.867-1.566-4.37-4.754-4.246-6.132.238-6.798 13.742-6.08 23.325-.035-.24-.385 1.207-3 1.892-.088-4.193-5.42-6.115-6.7-4.777-2.283 2.384.523 7.277 3.118 8.486-1.586 9.57-11.507 7.2-9.66-4.79 3.23-5.877 5.688-14.615 5.249-19.89C70.44 2.384 69.03-.12 65.842.005c-6.132.238-6.625 14.42-5.906 24.004-2.02 8.476-8.793 19.06-7.913-2.143.087-1.488.181-2.052-.576-2.61-.567-.432-1.857-.224-2.562-.207-.857.034-1.072.525-1.261 1.268-.442 1.917-.52 3.775-.584 6.311-.041 1.186-.138 1.74-.605 3.357-.466 1.617-3.123 4.573-4.578 4.079-2.018-.68-1.356-6.261-.978-10.096.315-3.03-.694-4.39-3.28-4.886-1.513-.309-2.433-.261-4.01-.748-1.49-.46-1.828-3.222-5.007-2.302-1.74.504-.622 4.114-1.04 6.789-2.055 13.16-6.33 13.52-8.314 7.128C28.162 8.516 21.812.066 18.095.066c-3.87 0-8.296 2.612-6.422 19.324-.911-.26-1.191-.4-2.189-.4C3.844 18.99 0 23.455 0 28.965s3.844 9.977 9.485 9.977c3.33 0 5.668-1.484 7.438-3.778 1.156 1.62 2.563 3.803 5.135 3.705 7.669-.293 9.899-15.7 10.162-16.56.82.124 1.595.358 2.352.482 1.261.186 1.353.675 1.325 1.917-.335 10.479 1.64 14.148 6.117 14.148 2.495 0 4.72-2.401 6.251-4.118 1.144 2.313 2.968 4.047 5.413 4.118 5.927.144 8.197-9.109 7.99-7.891-.163.955 1.923 7.839 8.024 7.864 7.559.03 8.963-8.11 9.13-9.474.022-.271.031-.243 0 0l-.005.082c2.4-.437 3.638-1.697 3.638-1.697s1.926 11.215 9.063 11.089c7.412-.132 8.809-7.49 8.993-8.926.024-.34.038-.3 0 0l-.003.042c2.85-1.015 3.6-2.035 3.6-2.035s1.531 10.992 9.064 11.088c6.712.086 9.199-6.646 9.214-9.464 1.132.011 3.226-.658 3.177-.696 0 0 2.459 9.61 9.325 10.104 3.224.231 5.642-1.777 7.021-2.693 3.239 2.57 14.027 5.852 20.838-5.46.962-1.623-1.105-3.54-1.468-3.791zM9.212 35.21c-3.29 0-5.401-2.98-5.401-6.194s1.937-6.195 5.228-6.195c1.481 0 2.305.16 3.459 1.142.209.808.801 2.67 1.09 3.516.386 1.131.846 2.095 1.31 3.143-.663 2.689-2.833 4.588-5.686 4.588zm8.02-11.152c-.136-.214-.108-.082-.26-.284-.604-1.608-1.767-5.196-1.902-9.27-.152-4.61.633-10.015 2.945-10.015 1.567 0 3.233 10.952-.783 19.569zm46.341-4.803c-.371-2.736-.39-14.932 2.599-14.596 1.65.655-1.047 12.163-2.599 14.596zm21.827 0c-.372-2.736-.391-14.932 2.598-14.596 1.65.655-1.047 12.163-2.599 14.596zm21.653.17c-.372-2.737-.391-14.932 2.598-14.596 1.65.654-1.047 12.163-2.598 14.595zm23.905-15.48c2.732-.277 2.62 11.412-2.866 18.792-.707-2.668-1.792-17.876 2.866-18.792zM142.444 29.1c-.878-4.343 1.39-7.195 3.728-7.508.818-.128 2.002.39 2.238 1.36.388 1.827-.056 4.537-5.289 7.976.008.03-.481-.86-.677-1.828z" fill="#F61067"/></svg>